<mxfile host="65bd71144e">
    <diagram id="dEsxjaJI9zJDPGA-cxC-" name="Página-1">
        <mxGraphModel dx="780" dy="567" grid="1" gridSize="10" guides="1" tooltips="1" connect="1" arrows="1" fold="1" page="1" pageScale="1" pageWidth="827" pageHeight="1169" math="0" shadow="0">
            <root>
                <mxCell id="0"/>
                <mxCell id="1" parent="0"/>
                <mxCell id="2" value="&lt;h2&gt;&lt;font face=&quot;Times New Roman&quot; style=&quot;font-size: 20px&quot; color=&quot;#ffffff&quot;&gt;Inicio&lt;/font&gt;&lt;/h2&gt;" style="ellipse;whiteSpace=wrap;html=1;fillColor=#60a917;fontColor=#ffffff;strokeColor=#2D7600;" parent="1" vertex="1">
                    <mxGeometry x="250" y="10" width="120" height="80" as="geometry"/>
                </mxCell>
                <mxCell id="3" value="" style="endArrow=classic;html=1;fontFamily=Times New Roman;fontSize=20;fontColor=#FFFFFF;exitX=0.5;exitY=1;exitDx=0;exitDy=0;" parent="1" edge="1">
                    <mxGeometry width="50" height="50" relative="1" as="geometry">
                        <mxPoint x="310" y="89.99999999999989" as="sourcePoint"/>
                        <mxPoint x="310" y="130" as="targetPoint"/>
                    </mxGeometry>
                </mxCell>
                <mxCell id="4" value="&lt;font style=&quot;font-size: 12px&quot;&gt;seg&lt;br&gt;h2=min2=0&lt;br&gt;&lt;/font&gt;" style="shape=parallelogram;perimeter=parallelogramPerimeter;whiteSpace=wrap;html=1;fixedSize=1;fontFamily=Times New Roman;fontSize=20;fontColor=#ffffff;fillColor=#1ba1e2;strokeColor=#006EAF;" parent="1" vertex="1">
                    <mxGeometry x="250" y="130" width="120" height="60" as="geometry"/>
                </mxCell>
                <mxCell id="5" value="" style="endArrow=classic;html=1;fontFamily=Times New Roman;fontSize=20;fontColor=#FFFFFF;exitX=0.5;exitY=1;exitDx=0;exitDy=0;" parent="1" source="4" edge="1">
                    <mxGeometry width="50" height="50" relative="1" as="geometry">
                        <mxPoint x="290" y="260" as="sourcePoint"/>
                        <mxPoint x="310" y="240" as="targetPoint"/>
                    </mxGeometry>
                </mxCell>
                <mxCell id="9" value="&lt;font style=&quot;font-size: 12px&quot;&gt;Hora = h2&lt;br&gt;Minutos = min2&lt;br&gt;Segundos = seg&lt;/font&gt;" style="shape=document;whiteSpace=wrap;html=1;boundedLbl=1;fontFamily=Times New Roman;fontSize=13;fontColor=#ffffff;fillColor=#008a00;strokeColor=#005700;" parent="1" vertex="1">
                    <mxGeometry x="30" y="880" width="80" height="80" as="geometry"/>
                </mxCell>
                <mxCell id="11" value="Fin" style="ellipse;whiteSpace=wrap;html=1;fontFamily=Times New Roman;fontSize=13;fontColor=#ffffff;fillColor=#e51400;strokeColor=#B20000;" parent="1" vertex="1">
                    <mxGeometry x="354" y="1050" width="120" height="80" as="geometry"/>
                </mxCell>
                <mxCell id="13" style="edgeStyle=none;html=1;exitX=1;exitY=0.5;exitDx=0;exitDy=0;" parent="1" source="12" edge="1">
                    <mxGeometry relative="1" as="geometry">
                        <mxPoint x="510" y="370" as="targetPoint"/>
                        <Array as="points">
                            <mxPoint x="430" y="300"/>
                            <mxPoint x="510" y="300"/>
                            <mxPoint x="510" y="330"/>
                        </Array>
                    </mxGeometry>
                </mxCell>
                <mxCell id="14" style="edgeStyle=none;html=1;exitX=0;exitY=0.5;exitDx=0;exitDy=0;entryX=0.5;entryY=0;entryDx=0;entryDy=0;" parent="1" source="12" edge="1" target="15">
                    <mxGeometry relative="1" as="geometry">
                        <mxPoint x="190" y="360" as="targetPoint"/>
                        <Array as="points">
                            <mxPoint x="175" y="300"/>
                        </Array>
                    </mxGeometry>
                </mxCell>
                <mxCell id="12" value="&lt;font face=&quot;Courier New&quot;&gt;Sí seg &amp;gt;= 3600&lt;/font&gt;" style="rhombus;whiteSpace=wrap;html=1;fillColor=#e3c800;fontColor=#000000;strokeColor=#B09500;" parent="1" vertex="1">
                    <mxGeometry x="250" y="240" width="120" height="120" as="geometry"/>
                </mxCell>
                <mxCell id="16" style="edgeStyle=none;html=1;fontFamily=Courier New;fontSize=7;entryX=0.5;entryY=0;entryDx=0;entryDy=0;" parent="1" source="15" target="27" edge="1">
                    <mxGeometry relative="1" as="geometry">
                        <mxPoint x="270" y="440" as="targetPoint"/>
                        <Array as="points">
                            <mxPoint x="270" y="400"/>
                        </Array>
                    </mxGeometry>
                </mxCell>
                <mxCell id="17" style="edgeStyle=none;html=1;fontFamily=Courier New;fontSize=7;entryX=0.5;entryY=0;entryDx=0;entryDy=0;" parent="1" source="15" edge="1" target="9">
                    <mxGeometry relative="1" as="geometry">
                        <mxPoint x="110" y="880" as="targetPoint"/>
                        <Array as="points">
                            <mxPoint x="70" y="400"/>
                        </Array>
                    </mxGeometry>
                </mxCell>
                <mxCell id="15" value="&lt;font face=&quot;Courier New&quot; style=&quot;font-size: 10px;&quot;&gt;Si seg &amp;lt; 3600 y seg &amp;gt;= 60&lt;/font&gt;" style="rhombus;whiteSpace=wrap;html=1;fillColor=#e3c800;fontColor=#000000;strokeColor=#B09500;fontSize=10;" parent="1" vertex="1">
                    <mxGeometry x="120" y="350" width="110" height="100" as="geometry"/>
                </mxCell>
                <mxCell id="19" value="F" style="text;html=1;strokeColor=none;fillColor=none;align=center;verticalAlign=middle;whiteSpace=wrap;rounded=0;fontFamily=Courier New;fontSize=7;" parent="1" vertex="1">
                    <mxGeometry x="190" y="280" width="60" height="30" as="geometry"/>
                </mxCell>
                <mxCell id="20" value="V" style="text;html=1;strokeColor=none;fillColor=none;align=center;verticalAlign=middle;whiteSpace=wrap;rounded=0;fontFamily=Courier New;fontSize=7;" parent="1" vertex="1">
                    <mxGeometry x="370" y="280" width="60" height="30" as="geometry"/>
                </mxCell>
                <mxCell id="22" value="V" style="text;html=1;strokeColor=none;fillColor=none;align=center;verticalAlign=middle;whiteSpace=wrap;rounded=0;fontFamily=Courier New;fontSize=7;" parent="1" vertex="1">
                    <mxGeometry x="200" y="380" width="100" height="30" as="geometry"/>
                </mxCell>
                <mxCell id="23" value="F" style="text;html=1;strokeColor=none;fillColor=none;align=center;verticalAlign=middle;whiteSpace=wrap;rounded=0;fontFamily=Courier New;fontSize=7;" parent="1" vertex="1">
                    <mxGeometry x="60" y="380" width="60" height="30" as="geometry"/>
                </mxCell>
                <mxCell id="29" value="" style="edgeStyle=none;html=1;fontFamily=Courier New;fontSize=7;" parent="1" source="27" target="28" edge="1">
                    <mxGeometry relative="1" as="geometry"/>
                </mxCell>
                <mxCell id="27" value="min = seg // 60&lt;br style=&quot;font-size: 11px;&quot;&gt;s2 = seg % 60" style="rounded=0;whiteSpace=wrap;html=1;fontFamily=Courier New;fontSize=11;fillColor=#fa6800;fontColor=#000000;strokeColor=#C73500;" parent="1" vertex="1">
                    <mxGeometry x="210" y="460" width="120" height="60" as="geometry"/>
                </mxCell>
                <mxCell id="31" style="edgeStyle=none;html=1;exitX=0;exitY=0.5;exitDx=0;exitDy=0;fontFamily=Courier New;fontSize=7;entryX=0.5;entryY=0;entryDx=0;entryDy=0;" parent="1" source="28" edge="1" target="59">
                    <mxGeometry relative="1" as="geometry">
                        <mxPoint x="190" y="880" as="targetPoint"/>
                        <Array as="points">
                            <mxPoint x="190" y="600"/>
                        </Array>
                    </mxGeometry>
                </mxCell>
                <mxCell id="32" style="edgeStyle=none;html=1;fontFamily=Courier New;fontSize=7;entryX=0.607;entryY=-0.005;entryDx=0;entryDy=0;entryPerimeter=0;" parent="1" source="28" edge="1" target="60">
                    <mxGeometry relative="1" as="geometry">
                        <mxPoint x="350" y="880.7384643554688" as="targetPoint"/>
                        <Array as="points">
                            <mxPoint x="350" y="600"/>
                        </Array>
                    </mxGeometry>
                </mxCell>
                <mxCell id="28" value="Si s2 == 0" style="rhombus;whiteSpace=wrap;html=1;fontSize=10;fontFamily=Courier New;rounded=0;fillColor=#e3c800;fontColor=#000000;strokeColor=#B09500;" parent="1" vertex="1">
                    <mxGeometry x="230" y="560" width="80" height="80" as="geometry"/>
                </mxCell>
                <mxCell id="35" value="" style="edgeStyle=none;html=1;fontFamily=Courier New;fontSize=7;" parent="1" source="33" target="34" edge="1">
                    <mxGeometry relative="1" as="geometry"/>
                </mxCell>
                <mxCell id="33" value="&lt;span style=&quot;font-size: 11px;&quot;&gt;h = seg // 3600&lt;/span&gt;&lt;br style=&quot;font-size: 11px;&quot;&gt;&lt;span style=&quot;font-size: 11px;&quot;&gt;s1 = seg % 3600&lt;/span&gt;" style="whiteSpace=wrap;html=1;fontFamily=Courier New;fontSize=11;fillColor=#fa6800;fontColor=#000000;strokeColor=#C73500;" parent="1" vertex="1">
                    <mxGeometry x="450" y="370" width="120" height="60" as="geometry"/>
                </mxCell>
                <mxCell id="36" style="edgeStyle=none;html=1;fontFamily=Courier New;fontSize=7;" parent="1" source="34" edge="1">
                    <mxGeometry relative="1" as="geometry">
                        <mxPoint x="590" y="560" as="targetPoint"/>
                        <Array as="points">
                            <mxPoint x="590" y="500"/>
                        </Array>
                    </mxGeometry>
                </mxCell>
                <mxCell id="37" style="edgeStyle=none;html=1;fontFamily=Courier New;fontSize=7;" parent="1" source="34" edge="1">
                    <mxGeometry relative="1" as="geometry">
                        <mxPoint x="430" y="882.953857421875" as="targetPoint"/>
                        <Array as="points">
                            <mxPoint x="430" y="500"/>
                        </Array>
                    </mxGeometry>
                </mxCell>
                <mxCell id="34" value="Si s1 == 0" style="rhombus;whiteSpace=wrap;html=1;fontSize=11;fontFamily=Courier New;fillColor=#e3c800;fontColor=#000000;strokeColor=#B09500;" parent="1" vertex="1">
                    <mxGeometry x="470" y="460" width="80" height="80" as="geometry"/>
                </mxCell>
                <mxCell id="49" style="edgeStyle=none;html=1;fontFamily=Courier New;fontSize=7;entryX=0.5;entryY=0;entryDx=0;entryDy=0;" parent="1" source="51" target="55" edge="1">
                    <mxGeometry relative="1" as="geometry">
                        <mxPoint x="670" y="640" as="targetPoint"/>
                        <Array as="points">
                            <mxPoint x="670" y="600"/>
                        </Array>
                    </mxGeometry>
                </mxCell>
                <mxCell id="50" style="edgeStyle=none;html=1;fontFamily=Courier New;fontSize=7;" parent="1" source="51" edge="1">
                    <mxGeometry relative="1" as="geometry">
                        <mxPoint x="510" y="880" as="targetPoint"/>
                        <Array as="points">
                            <mxPoint x="510" y="600"/>
                        </Array>
                    </mxGeometry>
                </mxCell>
                <mxCell id="51" value="&lt;font face=&quot;Courier New&quot; style=&quot;font-size: 10px;&quot;&gt;Si s1 &amp;gt;= 60&amp;nbsp;&lt;/font&gt;" style="rhombus;whiteSpace=wrap;html=1;fillColor=#e3c800;fontColor=#000000;strokeColor=#B09500;fontSize=10;" parent="1" vertex="1">
                    <mxGeometry x="550" y="560" width="80" height="80" as="geometry"/>
                </mxCell>
                <mxCell id="52" value="V" style="text;html=1;strokeColor=none;fillColor=none;align=center;verticalAlign=middle;whiteSpace=wrap;rounded=0;fontFamily=Courier New;fontSize=7;rotation=90;" parent="1" vertex="1">
                    <mxGeometry x="600" y="580" width="100" height="30" as="geometry"/>
                </mxCell>
                <mxCell id="53" value="F" style="text;html=1;strokeColor=none;fillColor=none;align=center;verticalAlign=middle;whiteSpace=wrap;rounded=0;fontFamily=Courier New;fontSize=7;" parent="1" vertex="1">
                    <mxGeometry x="510" y="580" width="60" height="30" as="geometry"/>
                </mxCell>
                <mxCell id="54" value="" style="edgeStyle=none;html=1;fontFamily=Courier New;fontSize=7;" parent="1" source="55" target="58" edge="1">
                    <mxGeometry relative="1" as="geometry"/>
                </mxCell>
                <mxCell id="55" value="min = s1 // 60&lt;br style=&quot;font-size: 11px;&quot;&gt;s2 = s1 % 60" style="rounded=0;whiteSpace=wrap;html=1;fontFamily=Courier New;fontSize=11;fillColor=#fa6800;fontColor=#000000;strokeColor=#C73500;" parent="1" vertex="1">
                    <mxGeometry x="610" y="660" width="120" height="60" as="geometry"/>
                </mxCell>
                <mxCell id="56" style="edgeStyle=none;html=1;exitX=0;exitY=0.5;exitDx=0;exitDy=0;fontFamily=Courier New;fontSize=7;" parent="1" source="58" edge="1">
                    <mxGeometry relative="1" as="geometry">
                        <mxPoint x="590" y="880" as="targetPoint"/>
                        <Array as="points">
                            <mxPoint x="590" y="800"/>
                        </Array>
                    </mxGeometry>
                </mxCell>
                <mxCell id="57" style="edgeStyle=none;html=1;fontFamily=Courier New;fontSize=7;" parent="1" source="58" edge="1">
                    <mxGeometry relative="1" as="geometry">
                        <mxPoint x="750" y="880" as="targetPoint"/>
                        <Array as="points">
                            <mxPoint x="750" y="800"/>
                        </Array>
                    </mxGeometry>
                </mxCell>
                <mxCell id="58" value="Si s2 == 0" style="rhombus;whiteSpace=wrap;html=1;fontSize=10;fontFamily=Courier New;rounded=0;fillColor=#e3c800;fontColor=#000000;strokeColor=#B09500;" parent="1" vertex="1">
                    <mxGeometry x="630" y="760" width="80" height="80" as="geometry"/>
                </mxCell>
                <mxCell id="59" value="&lt;font style=&quot;font-size: 12px&quot;&gt;Hora = h2&lt;br&gt;Minutos = min&lt;br&gt;Segundos = s2&lt;/font&gt;" style="shape=document;whiteSpace=wrap;html=1;boundedLbl=1;fontFamily=Times New Roman;fontSize=13;fontColor=#ffffff;fillColor=#008a00;strokeColor=#005700;" vertex="1" parent="1">
                    <mxGeometry x="150" y="880" width="80" height="80" as="geometry"/>
                </mxCell>
                <mxCell id="60" value="&lt;font style=&quot;font-size: 12px&quot;&gt;Hora = h2&lt;br&gt;Minutos = min2&lt;br&gt;Segundos = s2&lt;/font&gt;" style="shape=document;whiteSpace=wrap;html=1;boundedLbl=1;fontFamily=Times New Roman;fontSize=13;fontColor=#ffffff;fillColor=#008a00;strokeColor=#005700;" vertex="1" parent="1">
                    <mxGeometry x="300" y="880" width="80" height="80" as="geometry"/>
                </mxCell>
                <mxCell id="61" value="&lt;font style=&quot;font-size: 12px&quot;&gt;Hora = h&lt;br&gt;Minutos = min2&lt;br&gt;Segundos = s1&lt;/font&gt;" style="shape=document;whiteSpace=wrap;html=1;boundedLbl=1;fontFamily=Times New Roman;fontSize=13;fontColor=#ffffff;fillColor=#008a00;strokeColor=#005700;" vertex="1" parent="1">
                    <mxGeometry x="390" y="880" width="80" height="80" as="geometry"/>
                </mxCell>
                <mxCell id="62" value="&lt;font style=&quot;font-size: 12px&quot;&gt;Hora = h&lt;br&gt;Minutos = min2&lt;br&gt;Segundos = s1&lt;/font&gt;" style="shape=document;whiteSpace=wrap;html=1;boundedLbl=1;fontFamily=Times New Roman;fontSize=13;fontColor=#ffffff;fillColor=#008a00;strokeColor=#005700;" vertex="1" parent="1">
                    <mxGeometry x="480" y="880" width="80" height="80" as="geometry"/>
                </mxCell>
                <mxCell id="64" value="V" style="text;html=1;strokeColor=none;fillColor=none;align=center;verticalAlign=middle;whiteSpace=wrap;rounded=0;fontFamily=Courier New;fontSize=7;" vertex="1" parent="1">
                    <mxGeometry x="280" y="580" width="100" height="30" as="geometry"/>
                </mxCell>
                <mxCell id="65" value="F" style="text;html=1;strokeColor=none;fillColor=none;align=center;verticalAlign=middle;whiteSpace=wrap;rounded=0;fontFamily=Courier New;fontSize=7;" vertex="1" parent="1">
                    <mxGeometry x="180" y="580" width="60" height="30" as="geometry"/>
                </mxCell>
                <mxCell id="66" value="&lt;font style=&quot;font-size: 12px&quot;&gt;Hora = h&lt;br&gt;Minutos = min2&lt;br&gt;Segundos = s1&lt;/font&gt;" style="shape=document;whiteSpace=wrap;html=1;boundedLbl=1;fontFamily=Times New Roman;fontSize=13;fontColor=#ffffff;fillColor=#008a00;strokeColor=#005700;" vertex="1" parent="1">
                    <mxGeometry x="570" y="880" width="80" height="80" as="geometry"/>
                </mxCell>
                <mxCell id="67" value="&lt;font style=&quot;font-size: 12px&quot;&gt;Hora = h&lt;br&gt;Minutos = min&lt;br&gt;Segundos = s1&lt;/font&gt;" style="shape=document;whiteSpace=wrap;html=1;boundedLbl=1;fontFamily=Times New Roman;fontSize=13;fontColor=#ffffff;fillColor=#008a00;strokeColor=#005700;" vertex="1" parent="1">
                    <mxGeometry x="710" y="880" width="80" height="80" as="geometry"/>
                </mxCell>
                <mxCell id="68" value="V" style="text;html=1;strokeColor=none;fillColor=none;align=center;verticalAlign=middle;whiteSpace=wrap;rounded=0;fontFamily=Courier New;fontSize=7;" vertex="1" parent="1">
                    <mxGeometry x="400" y="480" width="100" height="30" as="geometry"/>
                </mxCell>
                <mxCell id="69" value="F" style="text;html=1;strokeColor=none;fillColor=none;align=center;verticalAlign=middle;whiteSpace=wrap;rounded=0;fontFamily=Courier New;fontSize=7;" vertex="1" parent="1">
                    <mxGeometry x="540" y="480" width="60" height="30" as="geometry"/>
                </mxCell>
                <mxCell id="70" value="V" style="text;html=1;strokeColor=none;fillColor=none;align=center;verticalAlign=middle;whiteSpace=wrap;rounded=0;fontFamily=Courier New;fontSize=7;" vertex="1" parent="1">
                    <mxGeometry x="680" y="780" width="100" height="30" as="geometry"/>
                </mxCell>
                <mxCell id="71" value="F" style="text;html=1;strokeColor=none;fillColor=none;align=center;verticalAlign=middle;whiteSpace=wrap;rounded=0;fontFamily=Courier New;fontSize=7;" vertex="1" parent="1">
                    <mxGeometry x="580" y="780" width="60" height="30" as="geometry"/>
                </mxCell>
                <mxCell id="72" value="" style="endArrow=none;html=1;fontFamily=Times New Roman;fontSize=12;" edge="1" parent="1">
                    <mxGeometry width="50" height="50" relative="1" as="geometry">
                        <mxPoint x="70" y="990" as="sourcePoint"/>
                        <mxPoint x="750.5680025540865" y="990" as="targetPoint"/>
                    </mxGeometry>
                </mxCell>
                <mxCell id="73" value="" style="endArrow=none;html=1;fontFamily=Times New Roman;fontSize=12;" edge="1" parent="1" target="67">
                    <mxGeometry width="50" height="50" relative="1" as="geometry">
                        <mxPoint x="750" y="990" as="sourcePoint"/>
                        <mxPoint x="720" y="970" as="targetPoint"/>
                    </mxGeometry>
                </mxCell>
                <mxCell id="74" value="" style="endArrow=none;html=1;fontFamily=Times New Roman;fontSize=12;" edge="1" parent="1" target="66">
                    <mxGeometry width="50" height="50" relative="1" as="geometry">
                        <mxPoint x="610" y="990" as="sourcePoint"/>
                        <mxPoint x="580" y="970" as="targetPoint"/>
                    </mxGeometry>
                </mxCell>
                <mxCell id="75" value="" style="endArrow=none;html=1;fontFamily=Times New Roman;fontSize=12;" edge="1" parent="1">
                    <mxGeometry width="50" height="50" relative="1" as="geometry">
                        <mxPoint x="69.62" y="990" as="sourcePoint"/>
                        <mxPoint x="69.62" y="960" as="targetPoint"/>
                    </mxGeometry>
                </mxCell>
                <mxCell id="76" value="" style="endArrow=none;html=1;fontFamily=Times New Roman;fontSize=12;" edge="1" parent="1">
                    <mxGeometry width="50" height="50" relative="1" as="geometry">
                        <mxPoint x="519.62" y="990" as="sourcePoint"/>
                        <mxPoint x="519.62" y="960" as="targetPoint"/>
                    </mxGeometry>
                </mxCell>
                <mxCell id="77" value="" style="endArrow=none;html=1;fontFamily=Times New Roman;fontSize=12;" edge="1" parent="1">
                    <mxGeometry width="50" height="50" relative="1" as="geometry">
                        <mxPoint x="429.62" y="990" as="sourcePoint"/>
                        <mxPoint x="429.62" y="960" as="targetPoint"/>
                    </mxGeometry>
                </mxCell>
                <mxCell id="78" value="" style="endArrow=none;html=1;fontFamily=Times New Roman;fontSize=12;" edge="1" parent="1">
                    <mxGeometry width="50" height="50" relative="1" as="geometry">
                        <mxPoint x="339.62" y="990" as="sourcePoint"/>
                        <mxPoint x="339.62" y="960" as="targetPoint"/>
                    </mxGeometry>
                </mxCell>
                <mxCell id="80" value="" style="endArrow=none;html=1;fontFamily=Times New Roman;fontSize=12;" edge="1" parent="1">
                    <mxGeometry width="50" height="50" relative="1" as="geometry">
                        <mxPoint x="190" y="990" as="sourcePoint"/>
                        <mxPoint x="190" y="960" as="targetPoint"/>
                    </mxGeometry>
                </mxCell>
                <mxCell id="82" value="" style="endArrow=classic;html=1;fontFamily=Times New Roman;fontSize=12;entryX=0.5;entryY=0;entryDx=0;entryDy=0;" edge="1" parent="1" target="11">
                    <mxGeometry width="50" height="50" relative="1" as="geometry">
                        <mxPoint x="414" y="990" as="sourcePoint"/>
                        <mxPoint x="464" y="940" as="targetPoint"/>
                    </mxGeometry>
                </mxCell>
            </root>
        </mxGraphModel>
    </diagram>
</mxfile>